<svg width="513" height="513" viewBox="0 0 513 513" fill="none" xmlns="http://www.w3.org/2000/svg">
<path d="M503.471 136.542V401.075C503.505 405.472 502.633 409.829 500.911 413.875C495.747 426.78 483.237 435.232 469.338 435.208H68.271V494.941H42.671C23.812 494.941 8.53802 488.2 8.53802 469.341V196.275C8.53802 177.424 23.82 162.142 42.671 162.142H460.804V102.409H469.337C488.189 102.409 503.471 117.691 503.471 136.542Z" fill="#FFE8D9"/>
<path d="M68.271 435.209V503.476H42.671C28.771 503.5 16.262 495.047 11.098 482.143C9.82502 479.185 9.01902 476.047 8.70902 472.842C8.62402 471.647 8.53802 470.538 8.53802 469.343C8.53802 450.492 23.82 435.21 42.671 435.21H68.271V435.209Z" fill="#FFE8D9"/>
<path d="M68.271 460.808V503.475H42.671C28.771 503.499 16.262 495.046 11.098 482.142C11.169 481.909 11.255 481.681 11.354 481.459C16.696 468.909 29.031 460.775 42.671 460.808H68.271Z" fill="#FFE8D9"/>
<path d="M503.471 153.609V401.076C503.505 405.473 502.633 409.83 500.911 413.876C495.747 400.971 483.237 392.519 469.338 392.543H460.805C456.092 392.543 452.272 388.723 452.272 384.01V119.475H469.339C488.189 119.475 503.471 134.757 503.471 153.609Z" fill="#FFE8D9"/>
<path d="M503.471 128.009V401.076C503.484 385.512 492.946 371.92 477.871 368.052C475.091 367.29 472.22 366.917 469.338 366.943H452.271V93.875H469.338C488.189 93.875 503.471 109.157 503.471 128.009Z" fill="#FFE8D9"/>
<path d="M477.871 128.009V368.052C475.091 367.29 472.22 366.917 469.338 366.943H452.271V94.985C467.346 98.852 477.883 112.445 477.871 128.009Z" fill="#FFE8D9"/>
<path d="M378.355 172.143C381.257 170.923 383.251 168.203 383.543 165.069C383.85 161.289 384.004 157.449 384.004 153.609C384.004 149.769 383.85 145.929 383.543 142.149C383.251 139.014 381.257 136.295 378.355 135.075L350.724 123.205C348.499 122.227 346.802 120.341 346.065 118.025C344.359 112.887 342.283 107.879 339.853 103.04C338.741 100.881 338.611 98.348 339.495 96.085L350.657 68.13C351.849 65.217 351.34 61.885 349.334 59.46C346.868 56.567 344.265 53.743 341.552 51.029C338.838 48.315 336.014 45.713 333.121 43.247C330.696 41.241 327.364 40.733 324.451 41.924L296.445 53.086C294.128 54.005 291.525 53.865 289.32 52.702C285.594 50.769 281.755 49.059 277.826 47.582C275.539 46.729 273.201 46.089 270.863 45.415L257.474 14.192C256.254 11.29 253.534 9.29597 250.4 9.00397C246.62 8.69697 242.78 8.54297 238.94 8.54297C235.1 8.54297 231.26 8.69697 227.48 9.00397C224.345 9.29597 221.626 11.29 220.406 14.192L207.014 45.38C204.676 46.054 202.338 46.728 200.051 47.547C196.121 49.024 192.283 50.734 188.557 52.667C186.352 53.83 183.749 53.97 181.432 53.051L153.46 41.924C150.547 40.732 147.215 41.241 144.79 43.247C141.897 45.713 139.073 48.316 136.359 51.029C133.645 53.743 131.043 56.567 128.577 59.46C126.571 61.885 126.063 65.217 127.254 68.13L138.416 96.085C139.3 98.347 139.169 100.88 138.058 103.04C135.628 107.878 133.551 112.886 131.846 118.025C131.108 120.34 129.411 122.227 127.187 123.205L99.522 135.075C96.62 136.295 94.626 139.015 94.334 142.149C94.027 145.929 93.873 149.769 93.873 153.609C93.873 157.449 94.027 161.289 94.334 165.069C94.626 168.204 96.62 170.923 99.522 172.143L127.153 184.013C129.378 184.991 131.075 186.877 131.812 189.193C133.516 194.329 135.592 199.335 138.024 204.169C139.136 206.331 139.267 208.867 138.382 211.132L127.22 239.087C126.028 242 126.537 245.332 128.543 247.757C131.009 250.65 133.612 253.474 136.325 256.188C139.039 258.902 141.863 261.504 144.756 263.97C147.181 265.976 150.513 266.484 153.426 265.293L181.381 254.131C183.646 253.247 186.182 253.377 188.344 254.489C193.178 256.921 198.184 258.997 203.32 260.701C205.635 261.439 207.522 263.136 208.5 265.36L220.37 293.025C221.59 295.927 224.31 297.921 227.444 298.213C231.258 298.52 235.098 298.674 238.938 298.674C242.778 298.674 246.618 298.52 250.398 298.213C253.533 297.921 256.252 295.927 257.472 293.025L269.342 265.394C270.32 263.169 272.206 261.472 274.522 260.735C279.658 259.031 284.664 256.954 289.498 254.523C291.66 253.411 294.196 253.28 296.461 254.165L324.416 265.327C327.329 266.519 330.661 266.01 333.086 264.004C335.979 261.538 338.803 258.935 341.517 256.222C344.231 253.508 346.833 250.684 349.299 247.791C351.305 245.366 351.813 242.034 350.622 239.121L339.46 211.132C338.576 208.867 338.706 206.331 339.818 204.169C342.25 199.335 344.326 194.329 346.03 189.193C346.768 186.878 348.465 184.991 350.689 184.013L378.355 172.143Z" fill="#FFE8D9"/>
<path d="M315.738 153.609C315.672 195.997 281.326 230.343 238.938 230.409C234.647 230.428 230.362 230.057 226.138 229.3C189.216 223.027 162.187 191.061 162.138 153.609C162.046 133.225 170.166 113.663 184.666 99.337C192.527 91.413 202.02 85.298 212.485 81.417C216.927 79.862 221.495 78.691 226.138 77.918C230.362 77.16 234.647 76.789 238.938 76.809C247.955 76.819 256.902 78.378 265.391 81.417C275.856 85.298 285.349 91.413 293.21 99.337C307.71 113.663 315.83 133.225 315.738 153.609Z" fill="#FFE8D9"/>
<path d="M290.138 153.609C290.089 191.06 263.06 223.027 226.138 229.3C189.216 223.027 162.187 191.061 162.138 153.609C162.046 133.225 170.166 113.663 184.666 99.337C192.527 91.413 202.02 85.298 212.485 81.417C216.927 79.862 221.495 78.691 226.138 77.918C230.781 78.691 235.349 79.861 239.791 81.417C250.256 85.298 259.749 91.413 267.61 99.337C282.11 113.663 290.23 133.225 290.138 153.609Z" fill="#FFE8D9"/>
<path d="M273.071 153.609C273.074 169.059 262.699 182.586 247.775 186.586C232.851 190.586 217.102 184.063 209.377 170.682C201.652 157.301 203.879 140.4 214.806 129.477C218.305 125.96 222.527 123.247 227.179 121.524C234.781 118.793 243.095 118.793 250.697 121.524C255.349 123.247 259.571 125.96 263.07 129.477C269.5 135.857 273.102 144.55 273.071 153.609Z" fill="#FFE8D9"/>
<path d="M281.263 48.905L270.852 53.086C268.518 54.017 265.891 53.86 263.684 52.659C259.977 50.728 256.159 49.019 252.249 47.539C249.945 46.686 247.556 46.088 245.252 45.406L231.855 14.174C230.873 11.705 228.732 9.88299 226.138 9.30999C226.555 9.07799 227.026 8.95999 227.503 8.96899C231.258 8.71299 235.098 8.54199 238.938 8.54199C242.778 8.54199 246.618 8.71299 250.373 8.96899C253.522 9.24099 256.256 11.25 257.456 14.174L270.853 45.406C273.157 46.089 275.546 46.686 277.85 47.539C279.044 47.966 280.154 48.393 281.263 48.905Z" fill="#FFE8D9"/>
<path d="M281.178 258.227C278.959 259.166 276.741 259.934 274.522 260.702C272.195 261.449 270.3 263.158 269.317 265.395L257.456 293.043C256.256 295.968 253.523 297.977 250.373 298.248C246.618 298.504 242.778 298.675 238.938 298.675C235.098 298.675 231.258 298.504 227.503 298.248C227.026 298.257 226.555 298.139 226.138 297.907C228.732 297.334 230.874 295.512 231.855 293.043L243.716 265.395C244.699 263.157 246.594 261.448 248.921 260.702C254.075 259.001 259.095 256.919 263.94 254.473C266.08 253.342 268.611 253.217 270.852 254.132L281.178 258.227Z" fill="#FFE8D9"/>
<path d="M384.004 153.609C384.004 157.449 383.833 161.289 383.577 165.044C383.305 168.193 381.296 170.927 378.372 172.127L350.724 183.988C348.486 184.971 346.777 186.866 346.031 189.193C344.33 194.347 342.248 199.367 339.802 204.212C338.671 206.352 338.546 208.883 339.461 211.124L350.64 239.113C351.799 242.019 351.275 245.326 349.275 247.732C346.8 250.633 344.24 253.449 341.51 256.18C338.779 258.911 335.963 261.471 333.062 263.945C330.657 265.946 327.349 266.47 324.443 265.31L311.728 260.19C313.179 258.91 314.544 257.545 315.909 256.179C318.64 253.448 321.2 250.632 323.674 247.731C325.675 245.326 326.199 242.018 325.039 239.112L313.86 211.123C312.945 208.882 313.07 206.351 314.201 204.211C316.648 199.366 318.73 194.346 320.43 189.192C321.177 186.865 322.886 184.97 325.123 183.987L352.771 172.126C355.696 170.926 357.705 168.193 357.976 165.043C358.232 161.288 358.403 157.448 358.403 153.608C358.403 149.768 358.232 145.928 357.976 142.173C357.704 139.024 355.695 136.29 352.771 135.09L325.123 123.229C322.885 122.246 321.176 120.351 320.43 118.024C318.729 112.87 316.647 107.85 314.201 103.005C313.07 100.865 312.945 98.334 313.86 96.093L325.039 68.104C326.198 65.198 325.674 61.891 323.674 59.485C321.199 56.584 318.639 53.768 315.909 51.037C314.544 49.672 313.178 48.306 311.728 47.026L324.443 41.906C327.349 40.747 330.656 41.271 333.062 43.271C335.963 45.746 338.779 48.306 341.51 51.036C344.241 53.767 346.801 56.583 349.275 59.484C351.276 61.889 351.8 65.197 350.64 68.103L339.46 96.094C338.545 98.335 338.67 100.866 339.801 103.006C342.248 107.851 344.33 112.871 346.03 118.025C346.777 120.352 348.486 122.247 350.723 123.23L378.371 135.091C381.296 136.291 383.305 139.024 383.576 142.174C383.834 145.929 384.004 149.769 384.004 153.609Z" fill="#FFE8D9"/>
<path d="M42.671 503.475H68.271C54.371 503.499 41.862 495.046 36.698 482.142C35.853 480.137 35.232 478.045 34.846 475.904V475.716C34.658 474.76 34.436 473.813 34.334 472.84C34.223 471.645 34.138 470.536 34.138 469.341V196.275C34.138 177.424 49.42 162.142 68.271 162.142H42.671C23.82 162.142 8.53802 177.424 8.53802 196.275V469.342C8.53802 470.537 8.62302 471.646 8.70902 472.841C8.81102 473.814 9.03302 474.761 9.22102 475.717V475.905C9.61502 478.047 10.245 480.139 11.098 482.143C16.262 495.046 28.771 503.499 42.671 503.475Z" fill="#FFE8D9"/>
<path d="M17.071 196.275V307.209V469.342H0.00402832V307.209V196.275H17.071Z" fill="#FFE8D9"/>
<path d="M8.53803 238.942C13.251 238.942 17.071 235.121 17.071 230.409V196.276C17.071 182.138 28.533 170.676 42.671 170.676H59.738C64.451 170.676 68.271 166.855 68.271 162.143C68.271 157.431 64.45 153.61 59.738 153.61H42.671C19.119 153.638 0.0330283 172.724 0.00402832 196.277V230.41C0.00402832 235.121 3.82503 238.942 8.53803 238.942Z" fill="#FF6501"/>
<path d="M11.78 256.691C11.296 256.445 10.779 256.272 10.244 256.179C9.68003 256.084 9.10903 256.027 8.53703 256.008C6.27803 256.041 4.11503 256.925 2.47803 258.483C1.70703 259.299 1.09803 260.255 0.686028 261.299C-0.600972 264.482 0.100028 268.124 2.47803 270.6C3.29403 271.371 4.25003 271.98 5.29403 272.392C6.32003 272.829 7.42203 273.061 8.53703 273.075C10.796 273.042 12.959 272.158 14.596 270.6C17.896 267.235 17.896 261.848 14.596 258.483L13.316 257.459C12.841 257.136 12.324 256.878 11.78 256.691Z" fill="#FF6501"/>
<path d="M469.338 85.342H452.271C447.558 85.342 443.738 89.163 443.738 93.875V153.608H418.138C413.425 153.608 409.605 157.428 409.605 162.141C409.605 166.854 413.426 170.674 418.138 170.674H443.738V366.941C443.738 371.654 447.559 375.474 452.271 375.474H469.338C483.476 375.474 494.938 386.936 494.938 401.074C494.938 415.212 483.476 426.674 469.338 426.674H42.671C33.408 426.705 24.413 429.782 17.071 435.429V298.675C17.071 293.962 13.25 290.142 8.538 290.142C3.826 290.142 0.00500488 293.962 0.00500488 298.675V469.342C0.0330049 492.894 19.119 511.98 42.672 512.009H68.272C72.985 512.009 76.805 508.189 76.805 503.476V443.743H469.338C492.89 443.715 511.976 424.629 512.005 401.076V128.009C511.976 104.456 492.89 85.37 469.338 85.342ZM59.738 494.942H42.671C28.533 494.942 17.071 483.48 17.071 469.342C17.071 455.204 28.533 443.742 42.671 443.742H59.738V494.942ZM469.338 358.409H460.805V102.409H469.338C483.476 102.409 494.938 113.871 494.938 128.009V367.164C487.596 361.516 478.6 358.44 469.338 358.409Z" fill="#FF6501"/>
<path d="M238.938 238.942C280.256 238.803 315.553 209.114 322.767 168.431C329.981 127.748 307.044 87.732 268.293 73.396C249.288 66.576 228.503 66.576 209.498 73.396C170.627 87.654 147.586 127.744 154.836 168.508C162.084 209.271 197.534 238.96 238.938 238.942ZM190.699 105.327C197.666 98.303 206.083 92.883 215.36 89.446C230.576 83.991 247.214 83.991 262.43 89.446C290.993 99.839 309.267 127.839 307.281 158.169C305.295 188.499 283.527 213.878 253.852 220.458C224.178 227.038 193.722 213.24 179.102 186.592C164.482 159.944 169.207 126.844 190.699 105.352V105.327Z" fill="#FF6501"/>
<path d="M238.938 196.275C256.188 196.271 271.738 185.881 278.344 169.946C284.949 154.011 281.309 135.666 269.121 123.46C264.732 119.046 259.432 115.644 253.59 113.493C244.093 110.071 233.699 110.071 224.201 113.493C204.685 120.563 193.089 140.651 196.727 161.087C200.365 181.523 218.181 196.375 238.938 196.275ZM220.855 135.492C223.449 132.85 226.593 130.811 230.062 129.519C235.772 127.471 242.016 127.471 247.726 129.519C255.95 132.519 262.071 139.513 263.954 148.062C265.837 156.611 263.221 165.53 257.018 171.708C246.898 181.392 230.948 181.392 220.828 171.708C216.026 166.907 213.328 160.395 213.328 153.605C213.328 146.815 216.026 140.303 220.828 135.502L220.855 135.492Z" fill="#FF6501"/>
<path d="M91.473 129.246C88.669 130.444 86.718 133.046 86.353 136.073C84.988 147.73 84.988 159.506 86.353 171.162C86.718 174.189 88.669 176.791 91.473 177.989L123.729 191.839C125.574 197.399 127.822 202.818 130.453 208.052L117.44 240.649C116.309 243.477 116.771 246.693 118.652 249.088C125.917 258.31 134.24 266.647 143.45 273.929C145.845 275.81 149.062 276.272 151.889 275.141L184.495 262.128C189.728 264.762 195.147 267.009 200.708 268.852L214.558 301.108C215.756 303.912 218.358 305.863 221.385 306.228C233.03 307.593 244.795 307.593 256.44 306.228C259.467 305.863 262.069 303.912 263.267 301.108L277.117 268.852C282.678 267.009 288.097 264.762 293.33 262.128L325.979 275.107C328.807 276.238 332.023 275.776 334.418 273.895C343.646 266.633 351.984 258.307 359.259 249.089C361.14 246.694 361.602 243.477 360.471 240.65L347.458 208.053C350.09 202.819 352.337 197.4 354.182 191.84L386.438 177.99C389.242 176.792 391.193 174.19 391.558 171.163C392.923 159.506 392.923 147.73 391.558 136.074C391.193 133.047 389.242 130.445 386.438 129.247L354.139 115.397C352.298 109.835 350.05 104.416 347.415 99.184L360.437 66.57C361.568 63.742 361.106 60.526 359.225 58.131C351.96 48.909 343.637 40.572 334.427 33.29C332.032 31.409 328.815 30.947 325.988 32.078L293.314 45.16C289.235 43.027 285.029 41.146 280.719 39.528C279.533 39.093 278.33 38.675 277.126 38.325L263.3 6.14399C262.102 3.33999 259.5 1.38899 256.473 1.02399C244.828 -0.341006 233.063 -0.341006 221.418 1.02399C218.391 1.38899 215.789 3.33999 214.591 6.14399L200.767 38.332C199.547 38.707 198.326 39.109 197.106 39.552C192.818 41.16 188.635 43.032 184.579 45.158L151.896 32.111C149.068 30.98 145.852 31.442 143.457 33.323C134.229 40.585 125.891 48.911 118.616 58.129C116.735 60.524 116.273 63.741 117.404 66.568L130.417 99.165C127.781 104.397 125.534 109.816 123.693 115.378L91.473 129.246ZM134.071 129.536C136.41 128.531 138.178 126.535 138.892 124.092C140.965 117.026 143.792 110.202 147.323 103.74C148.542 101.508 148.701 98.848 147.758 96.487L135.154 64.914C137.424 62.243 139.856 59.615 142.39 57.08C144.924 54.546 147.561 52.105 150.232 49.835L181.916 62.473C184.283 63.421 186.95 63.262 189.186 62.038C193.609 59.548 198.209 57.389 202.95 55.578C205.058 54.819 207.217 54.204 209.384 53.573C211.838 52.863 213.846 51.091 214.854 48.743L228.268 17.502C235.368 16.93 242.502 16.93 249.601 17.502L263.015 48.743C264.023 51.091 266.03 52.863 268.485 53.573C270.644 54.204 272.811 54.819 274.851 55.553C279.616 57.37 284.239 59.537 288.684 62.038C290.921 63.262 293.588 63.422 295.954 62.473L327.681 49.827C330.352 52.097 332.98 54.529 335.515 57.072C338.049 59.615 340.49 62.192 342.76 64.906L330.156 96.479C329.213 98.841 329.373 101.5 330.591 103.732C334.122 110.194 336.949 117.018 339.022 124.084C339.737 126.527 341.505 128.523 343.843 129.528L375.041 142.942C375.323 146.441 375.468 150.016 375.468 153.609C375.468 157.202 375.323 160.777 375.041 164.276L343.8 177.682C341.461 178.687 339.693 180.683 338.979 183.126C336.901 190.191 334.075 197.014 330.548 203.478C329.329 205.71 329.17 208.37 330.113 210.731L342.717 242.304C340.447 244.975 338.015 247.603 335.481 250.138C332.947 252.672 330.31 255.113 327.639 257.383L296.066 244.779C293.705 243.829 291.043 243.988 288.813 245.214C282.347 248.74 275.525 251.569 268.461 253.653C266.023 254.368 264.03 256.132 263.025 258.466L249.602 289.715C242.502 290.287 235.368 290.287 228.269 289.715L214.855 258.474C213.85 256.141 211.857 254.376 209.419 253.661C202.355 251.576 195.533 248.747 189.067 245.222C186.837 243.996 184.174 243.836 181.814 244.787L150.241 257.391C147.57 255.121 144.942 252.689 142.407 250.146C139.873 247.603 137.432 244.983 135.162 242.312L147.766 210.739C148.709 208.377 148.549 205.718 147.331 203.486C143.804 197.022 140.978 190.199 138.9 183.134C138.185 180.691 136.417 178.695 134.079 177.69L102.83 164.276C102.548 160.777 102.403 157.202 102.403 153.609C102.403 150.016 102.548 146.441 102.83 142.942L134.071 129.536Z" fill="#FF6501"/>
</svg>
