<svg width="512" height="394" viewBox="0 0 512 394" fill="none" xmlns="http://www.w3.org/2000/svg">
<path d="M25.6 9.26703H486.4C495.826 9.26703 503.467 16.908 503.467 26.334V367.667C503.467 377.093 495.826 384.734 486.4 384.734H25.6C16.174 384.734 8.53299 377.093 8.53299 367.667V26.333C8.53299 16.908 16.174 9.26703 25.6 9.26703Z" fill="#FFE8D9"/>
<path d="M25.6 9.26703H460.8C470.226 9.26703 477.867 16.908 477.867 26.334V367.667C477.867 377.093 470.226 384.734 460.8 384.734H25.6C16.174 384.734 8.53299 377.093 8.53299 367.667V26.333C8.53299 16.908 16.174 9.26703 25.6 9.26703Z" fill="#FFE8D9"/>
<path d="M281.6 256.733H452.267C456.98 256.733 460.8 260.554 460.8 265.266V333.533C460.8 338.246 456.98 342.066 452.267 342.066H281.6C276.887 342.066 273.067 338.246 273.067 333.533V265.266C273.067 260.554 276.887 256.733 281.6 256.733Z" fill="#FFE8D9"/>
<path d="M281.6 256.733H426.667C431.38 256.733 435.2 260.554 435.2 265.266V333.533C435.2 338.246 431.38 342.066 426.667 342.066H281.6C276.887 342.066 273.067 338.246 273.067 333.533V265.266C273.067 260.554 276.887 256.733 281.6 256.733Z" fill="#FFE8D9"/>
<path d="M358.4 342.067L409.6 256.733H366.933L315.733 342.067H358.4Z" fill="#FFE8D9"/>
<path d="M238.933 145.8C238.933 197.641 196.907 239.667 145.066 239.667C93.225 239.667 51.2 197.641 51.2 145.8C51.2 93.959 93.226 51.933 145.067 51.933V103.133C121.503 103.133 102.4 122.236 102.4 145.8C102.4 169.364 121.503 188.467 145.067 188.467C168.631 188.467 187.734 169.364 187.734 145.8H238.933Z" fill="#FFE8D9"/>
<path d="M238.933 145.8H187.733C187.733 122.236 168.63 103.133 145.066 103.133V51.9331C169.965 51.9191 193.848 61.8051 211.455 79.4111C229.062 97.0171 238.947 120.901 238.933 145.8Z" fill="#FFE8D9"/>
<path d="M25.6 384.733H51.2C41.786 384.705 34.161 377.08 34.133 367.666V26.3331C34.161 16.9191 41.786 9.29405 51.2 9.26605H25.6C16.186 9.29405 8.56099 16.9191 8.53299 26.3331V367.666C8.56099 377.081 16.186 384.705 25.6 384.733Z" fill="#FFE8D9"/>
<path d="M8.533 103.133C10.792 103.1 12.955 102.216 14.592 100.658C17.892 97.2931 17.892 91.906 14.592 88.541L13.312 87.517C12.836 87.194 12.32 86.935 11.776 86.749C11.292 86.502 10.775 86.33 10.24 86.237C9.676 86.142 9.105 86.085 8.533 86.066C6.274 86.099 4.111 86.983 2.474 88.541C1.703 89.357 1.094 90.313 0.682 91.357C-0.605 94.54 0.096 98.1821 2.474 100.658C3.29 101.429 4.246 102.038 5.29 102.45C6.317 102.888 7.418 103.12 8.533 103.133Z" fill="#FF6501"/>
<path d="M486.4 0.733032H25.6C11.462 0.733032 0 12.195 0 26.333V60.466C0 65.18 3.821 69 8.533 69C13.245 69 17.066 65.18 17.066 60.467V26.333C17.066 21.62 20.887 17.8 25.599 17.8H486.399C491.112 17.8 494.932 21.621 494.932 26.333V367.666C494.932 372.379 491.112 376.199 486.399 376.199H25.6C20.887 376.199 17.067 372.379 17.067 367.666V128.733C17.067 124.02 13.246 120.2 8.534 120.2C3.822 120.2 0 124.021 0 128.733V367.666C0 381.804 11.462 393.266 25.6 393.266H486.4C500.538 393.266 512 381.804 512 367.666V26.333C512 12.195 500.539 0.733032 486.4 0.733032Z" fill="#FF6501"/>
<path d="M145.067 43.4C88.513 43.4 42.667 89.246 42.667 145.8C42.667 202.354 88.513 248.2 145.067 248.2C201.621 248.2 247.467 202.354 247.467 145.8C247.406 89.271 201.595 43.461 145.067 43.4ZM229.965 137.267H195.499C191.835 115.827 175.04 99.033 153.6 95.368V60.902C193.951 65.01 225.856 96.916 229.965 137.267ZM145.067 111.667C163.918 111.667 179.2 126.949 179.2 145.8C179.2 164.651 163.918 179.933 145.067 179.933C126.216 179.933 110.934 164.651 110.934 145.8C110.934 126.949 126.215 111.667 145.067 111.667ZM145.067 231.133C99.628 231.094 62.189 195.454 59.914 150.072C57.639 104.69 91.326 65.485 136.533 60.902V95.368C110.807 99.684 92.438 122.652 93.883 148.698C95.328 174.744 116.123 195.54 142.169 196.984C168.215 198.428 191.183 180.06 195.499 154.334H229.965C225.534 197.91 188.868 231.078 145.067 231.133Z" fill="#FF6501"/>
<path d="M264.533 265.267V333.534C264.533 342.96 272.174 350.601 281.6 350.601H452.267C461.693 350.601 469.334 342.96 469.334 333.534V265.267C469.334 255.841 461.693 248.2 452.267 248.2H281.6C272.174 248.2 264.533 255.841 264.533 265.267ZM394.53 265.267L353.57 333.534H330.803L371.763 265.267H394.53ZM452.267 333.533H373.47L414.43 265.266H452.267V333.533ZM281.6 265.267H351.863L310.903 333.534H281.6V265.267Z" fill="#FF6501"/>
<path d="M341.333 205.533C341.333 210.246 345.154 214.066 349.866 214.066H452.266C456.979 214.066 460.799 210.246 460.799 205.533C460.799 200.82 456.98 197 452.267 197H349.867C345.154 197 341.333 200.821 341.333 205.533Z" fill="#FF6501"/>
<path d="M281.6 214.067H315.733C320.446 214.067 324.266 210.247 324.266 205.534C324.266 200.821 320.446 197 315.733 197H281.6C276.887 197 273.067 200.821 273.067 205.533C273.067 210.245 276.887 214.067 281.6 214.067Z" fill="#FF6501"/>
<path d="M452.267 154.333H418.134C413.421 154.333 409.601 158.154 409.601 162.866C409.601 167.579 413.421 171.399 418.134 171.399H452.267C456.98 171.399 460.8 167.578 460.8 162.866C460.8 158.154 456.98 154.333 452.267 154.333Z" fill="#FF6501"/>
<path d="M281.6 171.4H384C388.713 171.4 392.533 167.579 392.533 162.867C392.533 158.154 388.713 154.334 384 154.334H281.6C276.887 154.334 273.067 158.155 273.067 162.867C273.067 167.579 276.887 171.4 281.6 171.4Z" fill="#FF6501"/>
<path d="M281.6 128.733H332.8C337.513 128.733 341.333 124.913 341.333 120.2C341.333 115.487 337.513 111.667 332.8 111.667H281.6C276.887 111.667 273.067 115.488 273.067 120.2C273.067 124.912 276.887 128.733 281.6 128.733Z" fill="#FF6501"/>
<path d="M452.267 69H409.6C404.887 69 401.067 72.821 401.067 77.533C401.067 82.245 404.888 86.066 409.6 86.066H452.267C456.98 86.066 460.8 82.245 460.8 77.533C460.8 72.821 456.98 69 452.267 69Z" fill="#FF6501"/>
<path d="M281.6 86.067H375.467C380.18 86.067 384 82.246 384 77.534C384 72.822 380.18 69 375.467 69H281.6C276.887 69 273.067 72.821 273.067 77.533C273.067 82.245 276.887 86.067 281.6 86.067Z" fill="#FF6501"/>
<path d="M85.333 273.8C80.62 273.8 76.8 277.62 76.8 282.333V333.533H59.733C55.02 333.533 51.2 337.353 51.2 342.066C51.2 346.779 55.021 350.599 59.733 350.599H213.333C218.046 350.599 221.866 346.778 221.866 342.066C221.866 337.354 218.045 333.533 213.333 333.533H196.266V316.466C196.266 311.753 192.445 307.933 187.733 307.933C183.02 307.933 179.2 311.754 179.2 316.466V333.533H162.133V273.8C162.133 269.087 158.312 265.267 153.6 265.267C148.888 265.267 145.067 269.087 145.067 273.8V333.533H128V299.4C128 294.687 124.179 290.867 119.467 290.867C114.754 290.867 110.934 294.687 110.934 299.4V333.533H93.867V282.333C93.867 277.621 90.046 273.8 85.333 273.8Z" fill="#FF6501"/>
</svg>
