<svg width="511" height="512" viewBox="0 0 511 512" fill="none" xmlns="http://www.w3.org/2000/svg">
<path d="M204.8 366.726H102.4V452.059H204.8V366.726Z" fill="#FF6501"/>
<path d="M34.133 434.993H273.066C287.204 434.993 298.666 446.455 298.666 460.593V477.66C298.666 491.798 287.204 503.26 273.066 503.26H34.133C19.995 503.26 8.53296 491.798 8.53296 477.66V460.593C8.53296 446.454 19.995 434.993 34.133 434.993Z" fill="#FFE8D9"/>
<path d="M204.8 366.726H102.4V460.593H204.8V366.726Z" fill="#FFE8D9"/>
<path d="M179.2 366.726H102.4V460.593H179.2V366.726Z" fill="#FFE8D9"/>
<path d="M34.133 434.993H273.066C287.204 434.993 298.666 446.455 298.666 460.593V477.66C298.666 491.798 287.204 503.26 273.066 503.26H34.133C19.995 503.26 8.53296 491.798 8.53296 477.66V460.593C8.53296 446.454 19.995 434.993 34.133 434.993Z" fill="#FFE8D9"/>
<path d="M34.133 434.993H247.466C261.604 434.993 273.066 446.455 273.066 460.593V477.66C273.066 491.798 261.604 503.26 247.466 503.26H34.133C19.995 503.26 8.53296 491.798 8.53296 477.66V460.593C8.53296 446.454 19.995 434.993 34.133 434.993Z" fill="#FFE8D9"/>
<path d="M366.933 16.8598L454.682 155.74L429.312 166.534L349.867 59.5258L366.933 16.8598Z" fill="#FFE8D9"/>
<path d="M453.291 243.164L492.886 223.367C496.943 221.336 500.024 217.774 501.449 213.467C502.874 209.16 502.525 204.463 500.48 200.413L481.195 161.842C477.174 153.77 467.568 150.219 459.264 153.735L454.656 155.698L429.312 166.535L422.997 169.351C420.767 170.278 419.041 172.117 418.258 174.402C417.475 176.687 417.709 179.198 418.901 181.298L444.996 228.231L453.291 243.164Z" fill="#FFE8D9"/>
<path d="M373.931 26.1608C373.454 29.5928 372.536 32.9478 371.2 36.1448C359.68 67.9738 286.549 246.833 280.32 264.156L196.267 264.327V264.242L196.523 239.069L344.235 14.3848L344.32 14.2998C349.892 7.89681 359.349 6.61881 366.421 11.3128C371.444 14.5228 374.322 20.2128 373.931 26.1608Z" fill="#FFE8D9"/>
<path d="M348.331 26.1608C347.854 29.5928 346.936 32.9478 345.6 36.1448C334.08 67.9738 260.949 246.833 254.72 264.156L196.267 264.241L196.523 239.068L344.235 14.3848L344.32 14.2998C347.176 17.5648 348.619 21.8318 348.331 26.1608Z" fill="#FFE8D9"/>
<path d="M196.267 281.393V383.793H42.6669C37.9539 383.793 34.1339 379.973 34.1339 375.26V289.927C34.1339 285.214 37.9549 281.394 42.6669 281.394H196.267V281.393Z" fill="#FFE8D9"/>
<path d="M281.6 281.393V383.793C281.6 388.506 277.78 392.326 273.067 392.326H179.2V255.793C179.2 251.08 183.021 247.26 187.733 247.26H247.466C266.318 247.26 281.6 262.542 281.6 281.393Z" fill="#FFE8D9"/>
<path d="M256 281.393V383.793C256 388.506 252.179 392.326 247.467 392.326H179.2V255.793C179.2 251.08 183.021 247.26 187.733 247.26H221.866C237.43 247.247 251.023 257.785 254.89 272.86C255.653 275.639 256.026 278.511 256 281.393Z" fill="#FFE8D9"/>
<path d="M281.6 272.86V332.593H256V281.393C256.026 278.511 255.653 275.639 254.891 272.86H281.6Z" fill="#FFE8D9"/>
<path d="M256 281.393V332.593H221.867C217.154 332.593 213.334 328.772 213.334 324.06V281.393C213.334 276.68 217.155 272.86 221.867 272.86H254.891C255.653 275.639 256.026 278.511 256 281.393Z" fill="#FFE8D9"/>
<path d="M128 383.793H102.4V434.993H128V383.793Z" fill="#FFE8D9"/>
<path d="M34.1329 289.926V375.259C34.1329 379.972 37.9539 383.792 42.6659 383.792H68.2659C63.5529 383.792 59.7329 379.972 59.7329 375.259V289.926C59.7329 285.213 63.5539 281.393 68.2659 281.393H42.6659C37.9539 281.393 34.1329 285.213 34.1329 289.926Z" fill="#FFE8D9"/>
<path d="M34.133 477.66V460.593C34.133 446.455 45.595 434.993 59.733 434.993H34.133C19.995 434.993 8.53296 446.455 8.53296 460.593V477.66C8.53296 491.798 19.995 503.26 34.133 503.26H59.733C45.595 503.26 34.133 491.798 34.133 477.66Z" fill="#FFE8D9"/>
<path d="M189.397 234.34L250.36 141.66L337.127 9.73383L351.386 19.1118L264.619 151.038L203.648 243.718L189.397 234.34Z" fill="#FFE8D9"/>
<path d="M228.019 188.038C228.438 188.429 228.883 188.791 229.35 189.122C231.253 190.336 233.545 190.788 235.767 190.385C240.324 189.311 243.249 184.866 242.432 180.256C242.173 179.166 241.71 178.135 241.067 177.218C240.449 176.287 239.655 175.487 238.729 174.863C235.844 172.941 232.084 172.956 229.214 174.899C226.344 176.842 224.934 180.329 225.648 183.721L226.151 185.283C226.371 185.815 226.658 186.317 227.004 186.776C227.276 187.246 227.619 187.671 228.019 188.038Z" fill="#FF6501"/>
<path d="M76.8 306.993H68.267C63.554 306.993 59.734 310.813 59.734 315.526C59.734 320.239 63.555 324.059 68.267 324.059H76.8C81.513 324.059 85.333 320.239 85.333 315.526C85.333 310.813 81.513 306.993 76.8 306.993Z" fill="#FF6501"/>
<path d="M136.533 306.993H110.933C106.22 306.993 102.4 310.813 102.4 315.526C102.4 320.239 106.221 324.059 110.933 324.059H136.533C141.246 324.059 145.066 320.239 145.066 315.526C145.066 310.813 141.246 306.993 136.533 306.993Z" fill="#FF6501"/>
<path d="M59.733 460.593H42.667C37.954 460.593 34.134 464.413 34.134 469.126C34.134 473.839 37.955 477.659 42.667 477.659H59.734C64.447 477.659 68.267 473.839 68.267 469.126C68.267 464.413 64.446 460.593 59.733 460.593Z" fill="#FF6501"/>
<path d="M110.933 460.593H93.867C89.154 460.593 85.334 464.413 85.334 469.126C85.334 473.839 89.155 477.659 93.867 477.659H110.934C115.647 477.659 119.467 473.839 119.467 469.126C119.467 464.413 115.646 460.593 110.933 460.593Z" fill="#FF6501"/>
<path d="M162.133 460.593H145.066C140.353 460.593 136.533 464.413 136.533 469.126C136.533 473.839 140.354 477.659 145.066 477.659H162.133C166.846 477.659 170.666 473.839 170.666 469.126C170.666 464.413 166.846 460.593 162.133 460.593Z" fill="#FF6501"/>
<path d="M187.733 469.126C187.733 473.839 191.553 477.659 196.266 477.659H213.333C218.046 477.659 221.866 473.839 221.866 469.126C221.866 464.413 218.045 460.593 213.333 460.593H196.266C191.554 460.593 187.733 464.413 187.733 469.126Z" fill="#FF6501"/>
<path d="M247.467 477.66H264.534C269.247 477.66 273.067 473.84 273.067 469.127C273.067 464.414 269.247 460.594 264.534 460.594H247.467C242.754 460.594 238.934 464.414 238.934 469.127C238.934 473.84 242.754 477.66 247.467 477.66Z" fill="#FF6501"/>
<path d="M488.866 158.095C483.233 146.834 470.227 141.365 458.24 145.218L382.089 21.1258C380.441 11.4128 373.318 3.53283 363.821 0.913834C354.324 -1.70517 344.169 1.41083 337.775 8.90683C337.584 9.20983 337.41 9.52283 337.254 9.84583L337.126 9.76883L245.666 148.786C243.074 152.724 244.165 158.017 248.102 160.609C252.04 163.201 257.333 162.11 259.925 158.173L350.907 19.8388C353.665 16.7838 358.234 16.1868 361.685 18.4308C364.101 19.9198 365.519 22.6018 365.388 25.4368C364.979 28.1128 364.246 30.7288 363.203 33.2278C356.769 50.9938 331.007 114.815 308.282 171.152C296.387 200.635 285.592 227.378 278.893 244.249C270.876 235.331 259.457 230.224 247.465 230.195H212.547L222.412 215.202C224.089 212.655 224.279 209.407 222.912 206.681C221.544 203.955 218.827 202.166 215.782 201.988C212.738 201.809 209.829 203.269 208.153 205.816L192.119 230.196H187.733C178.307 230.196 170.666 237.837 170.666 247.263V272.863H42.666C33.24 272.863 25.599 280.504 25.599 289.93V375.263C25.599 384.689 33.24 392.33 42.666 392.33H93.866V426.463H34.133C15.282 426.463 0 441.745 0 460.596V477.663C0 496.514 15.282 511.796 34.133 511.796H273.066C291.917 511.796 307.199 496.514 307.199 477.663V460.596C307.199 441.745 291.917 426.463 273.066 426.463H213.333V392.33H273.066C282.492 392.33 290.133 384.689 290.133 375.263V272.863C290.123 270.051 289.838 267.247 289.28 264.492C293.649 253.015 308.454 216.304 324.096 177.537C336.265 147.397 349.261 115.175 359.757 88.8758L416.248 163.44C409.311 168.508 407.245 177.956 411.435 185.456L441.515 239.557L419.038 250.761C414.82 252.868 413.108 257.995 415.215 262.213C417.322 266.431 422.449 268.143 426.667 266.036L457.08 250.881L457.182 250.821L496.76 231.049C509.384 224.678 514.475 209.295 508.143 196.651L488.866 158.095ZM273.067 324.06H221.867V281.393H273.067V324.06ZM290.134 460.593V477.66C290.134 487.086 282.493 494.727 273.067 494.727H34.133C24.707 494.727 17.066 487.086 17.066 477.66V460.593C17.066 451.167 24.707 443.526 34.133 443.526H273.066C282.492 443.526 290.134 451.167 290.134 460.593ZM196.267 426.46H110.934V392.327H196.267V426.46ZM204.8 375.26H42.667V289.927H170.667V332.594C170.667 337.307 174.488 341.127 179.2 341.127C183.912 341.127 187.733 337.306 187.733 332.594V247.26H247.466C258.276 247.305 267.893 254.135 271.496 264.327H221.866C212.44 264.327 204.799 271.968 204.799 281.394V324.061C204.799 333.487 212.44 341.128 221.866 341.128H273.066V375.261H204.8V375.26ZM376.917 45.2928L442.257 151.789L432.119 156.124L367.138 70.3548C371.2 60.1148 374.537 51.5558 376.917 45.2928ZM489.088 215.78L456.807 231.9L426.352 177.133L462.619 161.619C466.771 159.861 471.574 161.636 473.584 165.672L492.895 204.285C493.922 206.313 494.098 208.666 493.384 210.824C492.668 212.983 491.123 214.766 489.088 215.78Z" fill="#FF6501"/>
</svg>
