<svg width="512" height="512" viewBox="0 0 512 512" fill="none" xmlns="http://www.w3.org/2000/svg">
<path d="M291.999 501.991C291.999 436.179 291.999 380.292 291.999 253.012L220.002 163.025V163.015L258.41 115.007C258.493 115.111 317.868 189.331 317.958 189.434C326.208 198.974 338.397 205.004 351.997 205.004C365.596 205.004 377.785 198.974 386.035 189.434C386.185 189.263 448.433 111.442 448.573 111.267C458.922 98.308 477.821 96.2581 490.731 106.588C503.67 116.927 505.77 135.806 495.411 148.746L411.994 253.012V501.991C397.477 501.991 306.612 501.991 291.999 501.991Z" fill="#FFE8D9"/>
<path d="M351.997 205.004C376.848 205.004 396.995 184.857 396.995 160.005C396.995 135.154 376.848 115.007 351.997 115.007C327.145 115.007 306.998 135.154 306.998 160.005C306.998 184.857 327.145 205.004 351.997 205.004Z" fill="#FFE8D9"/>
<path d="M100.007 411.996C100.007 308.25 100.007 264.772 100.007 163.016L16.5907 58.75C6.23115 45.8105 8.33106 26.9313 21.2705 16.5917C34.18 6.25215 53.0892 8.33207 63.4288 21.2715C63.5088 21.3725 125.878 99.3373 125.966 99.4383C134.216 108.978 146.405 115.008 160.005 115.008C173.604 115.008 185.794 108.978 194.043 99.4383C194.193 99.2673 256.441 21.4465 256.581 21.2715C266.93 8.31207 285.83 6.26215 298.739 16.5917C311.679 26.9313 313.779 45.8105 303.419 58.75L220.002 163.016V411.996C205.485 411.996 114.621 411.996 100.007 411.996Z" fill="#FFE8D9"/>
<path d="M291.999 411.995V501.991H28.0099V411.995H291.999Z" fill="#FFE8D9"/>
<path d="M160.004 115.007C184.856 115.007 205.003 94.8609 205.003 70.0091C205.003 45.1573 184.856 25.011 160.004 25.011C135.153 25.011 115.006 45.1573 115.006 70.0091C115.006 94.8609 135.153 115.007 160.004 115.007Z" fill="#FFE8D9"/>
<path d="M496.979 98.7799C479.734 84.9815 454.559 87.7464 440.765 105.021L405.821 148.701C400.594 123.781 378.448 105.009 351.998 105.009C325.547 105.009 303.403 123.78 298.174 148.7L271.218 115.007L311.226 64.9993C325.037 47.75 322.265 22.5901 304.987 8.78363C287.743 -5.0148 262.568 -2.24992 248.774 15.0244L213.83 58.7046C208.602 33.7846 186.457 15.0124 160.006 15.0124C133.556 15.0124 111.411 33.7836 106.183 58.7026L71.2401 15.0284C57.4566 -2.21992 32.2707 -5.02981 15.0274 8.77963C-2.24492 22.5821 -5.0368 47.736 8.78163 64.9973L90.0073 166.523V401.996H28.0098C22.4871 401.996 18.0103 406.472 18.0103 411.995V501.991C18.0103 507.514 22.4871 511.991 28.0098 511.991H121.006C126.529 511.991 131.006 507.514 131.006 501.991C131.006 496.469 126.529 491.992 121.006 491.992H38.0094V421.995H281.999V491.992H211.002C205.48 491.992 201.003 496.469 201.003 501.991C201.003 507.514 205.48 511.991 211.002 511.991H441.993C447.516 511.991 451.992 507.514 451.992 501.991C451.992 496.469 447.516 491.992 441.993 491.992H421.994V256.519L503.217 154.996C517.028 137.746 514.256 112.586 496.979 98.7799ZM316.998 160.005C316.998 140.707 332.698 125.007 351.997 125.007C371.295 125.007 386.995 140.707 386.995 160.005C386.995 179.329 371.339 195.004 351.997 195.004C332.95 195.004 316.998 179.584 316.998 160.005ZM125.006 70.0091C125.006 50.7109 140.706 35.0106 160.004 35.0106C179.303 35.0106 195.003 50.7109 195.003 70.0091C195.003 89.3323 179.347 105.008 160.004 105.008C140.958 105.008 125.006 89.5883 125.006 70.0091ZM107.815 156.769L24.397 52.5008C17.5063 43.8932 18.8562 31.3207 27.5219 24.397C36.1345 17.4983 48.729 18.8932 55.6207 27.5189L115.874 102.837C126.841 117.424 143.303 125.008 160.004 125.008C176.798 125.008 193.207 117.384 204.181 102.774L264.394 27.5119C271.281 18.8882 283.862 17.4943 292.497 24.405C301.016 31.2107 302.605 43.7682 295.611 52.5048L212.194 156.771C210.835 158.468 210.003 160.716 210.003 163.027V401.998H170.005V280.003C170.005 274.48 165.528 270.003 160.005 270.003C154.483 270.003 150.006 274.48 150.006 280.003V401.998H110.007V163.017C110.006 160.744 109.234 158.541 107.815 156.769ZM230.002 401.996V191.53L281.999 256.52V401.997H230.002V401.996ZM487.602 142.5L404.325 246.591C402.902 248.297 401.995 250.617 401.995 253.012V491.992H361.996V369.997C361.996 364.474 357.519 359.997 351.997 359.997C346.474 359.997 341.997 364.474 341.997 369.997V491.992H301.999V253.012C301.999 250.741 301.226 248.538 299.807 246.764L232.803 163.02L258.409 131.014L307.865 192.831C318.853 207.445 335.328 215.002 351.996 215.002C368.789 215.002 385.198 207.378 396.172 192.768L456.385 117.506C463.272 108.883 475.854 107.49 484.488 114.399C493.007 121.206 494.597 133.763 487.602 142.5Z" fill="#FF6501"/>
<path d="M166.005 511.992C171.527 511.992 176.005 507.515 176.005 501.992C176.005 496.469 171.527 491.992 166.005 491.992C160.482 491.992 156.005 496.469 156.005 501.992C156.005 507.515 160.482 511.992 166.005 511.992Z" fill="#FF6501"/>
</svg>
